<?xml version="1.0" encoding="utf-8"?>
<!-- Svg Vector Icons : http://www.onlinewebfonts.com/icon -->
<!DOCTYPE svg PUBLIC "-//W3C//DTD SVG 1.1//EN" "http://www.w3.org/Graphics/SVG/1.1/DTD/svg11.dtd">
<svg version="1.1" xmlns="http://www.w3.org/2000/svg" xmlns:xlink="http://www.w3.org/1999/xlink" x="0px" y="0px" viewBox="0 0 256 256" enable-background="new 0 0 256 256" xml:space="preserve">
<metadata> Svg Vector Icons : http://www.onlinewebfonts.com/icon </metadata>
<g> <path fill="#63bc8b" d="M211.2,47c0.5,0.1,1,0.3,1.5,0.4c11.2,2.9,20.4,11,24.9,21.7l1,2.3c4.4,10.5,4.7,22.3,0.8,33l-7.1-1.4v0 l-49.1-9.9l-3.2-19l-2.1-12.8c-14.1-3.9-32-5.9-49.8-5.9c-17.8,0-35.6,2-49.8,5.9l-2.1,12.8l-3.2,19L23.8,103l-7.1,1.4 c-3.8-10.7-3.5-22.5,0.9-33l1-2.3c4.4-10.7,13.6-18.8,24.9-21.7c0.5-0.1,1-0.3,1.5-0.4C95.4,34.1,160.6,34.1,211.2,47L211.2,47z"/> <path fill="#63bc8b" d="M211.3,198.1l-10.3-78c-0.6-4.5-4-8.2-8.4-9.2l-15.3-3.3c-4.4-1-7.7-4.5-8.4-8.9l-1.3-8.7 c-0.8-5.3-5.3-9.2-10.6-9.2H99c-5.3,0-9.8,3.9-10.6,9.2l-1.3,8.7c-0.7,4.4-4,8-8.4,8.9l-15.3,3.3c-4.5,1-7.8,4.6-8.4,9.2l-10.3,78 L211.3,198.1z"/> <path fill="#4bb67b" d="M60.3,198.1l10.3-78c0.6-4.5,3.9-8.2,8.4-9.2l15.3-3.3c4.4-1,7.7-4.5,8.4-8.9l1.3-8.7 c0.8-5.3,5.3-9.2,10.6-9.2H99c-5.3,0-9.8,3.9-10.6,9.2l-1.3,8.7c-0.7,4.4-4,8-8.4,8.9l-15.3,3.3c-4.5,1-7.8,4.6-8.4,9.2l-10.3,78 H60.3L60.3,198.1z"/> <path fill="#63bc8b" d="M222.1,218.7H33.9l1.8-20.6h184.6L222.1,218.7z"/> <path fill="#4bb67b" d="M35.7,198.1l-1.8,20.6h19.4l1.8-20.6H35.7z"/> <path fill="#ffffff" d="M91.5,142.9c0,20.3,16.3,36.7,36.5,36.7c20.1,0,36.5-16.4,36.5-36.7c0-20.3-16.3-36.7-36.5-36.7 C107.9,106.1,91.5,122.6,91.5,142.9L91.5,142.9z"/> <path fill="#63bc8b" d="M117.2,142.9c0,6,4.8,10.8,10.8,10.8c5.9,0,10.8-4.8,10.8-10.8c0,0,0,0,0,0c0-6-4.8-10.8-10.8-10.8 C122.1,132,117.2,136.9,117.2,142.9C117.2,142.8,117.2,142.8,117.2,142.9z"/> <path fill="#040000" d="M242.2,69.8l-1-2.3c-4.9-11.9-15.2-20.9-27.5-24.1c-7.1-1.8-14.2-3.4-21.4-4.7c-2.2-0.4-4.3,1.1-4.6,3.3 c0,0,0,0,0,0c-0.4,2.2,1.1,4.3,3.2,4.7c6.5,1.2,12.9,2.5,19.3,4.2c0.5,0.1,1,0.2,1.5,0.4c9.9,2.6,18.2,9.8,22.2,19.4l1,2.3 c1.2,2.9,2.1,6,2.6,9l-54-11.4l-1.7-9.9c-0.3-1.5-1.4-2.8-2.9-3.2c-14-3.9-32.1-6-50.8-6c-18.8,0-36.8,2.1-50.8,6 c-1.5,0.4-2.6,1.7-2.9,3.2l-1.7,9.9l-13.8,2.9c-2.2,0.5-3.6,2.6-3.1,4.8c0.4,2.2,2.6,3.6,4.7,3.1l10.8-2.3l-1.8,10.5l-50,10.1 c-0.8-3.1-1.3-6.2-1.4-9.4l26.5-5.6c2.2-0.5,3.6-2.6,3.1-4.8c-0.4-2.2-2.6-3.6-4.7-3.1c0,0,0,0,0,0L18.6,82c0.5-3.1,1.4-6.1,2.6-9 l1-2.3c4-9.6,12.2-16.7,22.2-19.4c0.5-0.1,0.9-0.2,1.4-0.4l0.1,0c38.6-9.8,85.9-12.2,129.7-6.5c2.2,0.3,4.2-1.3,4.5-3.5 c0,0,0,0,0,0c0.3-2.2-1.3-4.2-3.5-4.5c-44.8-5.8-93.2-3.4-132.8,6.7c-0.5,0.1-1,0.3-1.5,0.4C30,46.7,19.7,55.7,14.8,67.5l-1,2.3 c-4.7,11.5-5.1,24.3-0.9,36c0.7,1.9,2.6,3,4.6,2.6l56.2-11.3c1.6-0.3,2.9-1.6,3.2-3.3l4.9-29.2c13-3.3,29.3-5.1,46.2-5.1 c17,0,33.3,1.8,46.2,5.1l4.9,29.2c0.3,1.6,1.5,3,3.2,3.3l48.9,9.9c0.1,0,0.1,0,0.2,0l7.1,1.4c2,0.4,3.9-0.7,4.6-2.6 C247.3,94.1,246.9,81.3,242.2,69.8L242.2,69.8z M233.2,99.1c-0.1,0-0.1,0-0.2,0l-46.4-9.3l-1.8-10.5l53.1,11.2 c-0.1,3.2-0.6,6.4-1.4,9.4L233.2,99.1z"/> <path fill="#040000" d="M224.3,197.8c-0.2-2.1-1.9-3.7-4-3.7h-5.4l-3-22.9c-0.3-2.2-2.3-3.8-4.5-3.5c-2.2,0.3-3.7,2.3-3.4,4.5 l2.9,21.8H49.2l9.7-73.5c0.4-2.8,2.5-5.1,5.3-5.7l15.3-3.3c6-1.3,10.6-6.2,11.5-12.3l1.3-8.7c0.5-3.3,3.3-5.8,6.7-5.8h58 c3.3,0,6.2,2.4,6.7,5.8l1.3,8.7c0.9,6.1,5.5,11,11.5,12.3l15.3,3.3c2.8,0.6,4.9,2.9,5.3,5.7l5,38.3c0.3,2.2,2.3,3.8,4.5,3.5 c2.2-0.3,3.7-2.3,3.4-4.5l-5-38.3c-0.8-6.2-5.4-11.2-11.5-12.6l-15.3-3.3c-2.7-0.6-4.8-2.8-5.3-5.6l-1.3-8.7 c-1.1-7.3-7.2-12.6-14.6-12.6h-1.5v-5.3c0-2.2-1.8-4-4-4c-2.2,0-4,1.8-4,4v5.3h-39v-5.3c0-2.2-1.8-4-4-4c-2.2,0-4,1.8-4,4v5.3H99 c-7.3,0-13.5,5.3-14.6,12.6l-1.3,8.7c-0.4,2.8-2.5,5-5.3,5.6L62.5,107c-6.1,1.3-10.7,6.4-11.5,12.6l-9.8,74.5h-5.4 c-2.1,0-3.8,1.6-4,3.7l-1.8,20.6c-0.1,1.1,0.3,2.2,1,3.1c0.8,0.8,1.8,1.3,3,1.3h30c2.2,0,4-1.8,4-4s-1.8-4-4-4H38.3l1.1-12.5h177.2 l1.1,12.5H77.3c-2.2,0-4,1.8-4,4s1.8,4,4,4h144.8c1.1,0,2.2-0.5,3-1.3c0.8-0.8,1.1-2,1-3.1L224.3,197.8L224.3,197.8z"/> <path fill="#040000" d="M128,102.1c-22.3,0-40.5,18.3-40.5,40.8c0,22.5,18.2,40.8,40.5,40.8c22.3,0,40.5-18.3,40.5-40.8 C168.5,120.4,150.3,102.1,128,102.1z M128,175.5c-17.9,0-32.5-14.7-32.5-32.7c0-18,14.6-32.7,32.5-32.7c17.9,0,32.5,14.7,32.5,32.7 C160.5,160.9,145.9,175.5,128,175.5z"/> <path fill="#040000" d="M128,128c-8.1,0-14.8,6.7-14.8,14.9c0,8.2,6.6,14.9,14.8,14.9c8.1,0,14.8-6.7,14.8-14.9 C142.8,134.7,136.1,128,128,128z M128,149.6c-3.7,0-6.8-3.1-6.7-6.8c0-3.8,3-6.8,6.7-6.8c3.7,0,6.8,3,6.8,6.8 C134.8,146.6,131.7,149.6,128,149.6z"/></g>
</svg>